# xmcd CD database file
#
# Track frame offsets:
#	225
#	15948
#	31511
#	44518
#	57602
#	78319
#	92045
#	105347
#	119294
#	131486
#	143666
#	160319
#	174378
#	186214
#	201548
#	216299
#	229544
#
# Disc length: 3232 seconds
#
# Revision: 0
# Processed by: cddbd v1.5.1PL2 Copyright (c) Steve Scherf et al.
# Submitted via: CDex 1.51
#
DISCID=df0c9d11
DTITLE=Nat King Cole - The King of Sound (Tivoli Audio Edition)
DYEAR=2006
DGENRE=Jazz
TTITLE0=Unforgettable
TTITLE1=Mona Lisa
TTITLE2=Nature Boy
TTITLE3=Smile
TTITLE4=Sweet Lorraine
TTITLE5=For Sentimental Reasons
TTITLE6=Tenderly
TTITLE7=Blue Gardenia
TTITLE8=A Blossom Fell
TTITLE9=Walkin' My Baby Back Home
TTITLE10=Route 66
TTITLE11=It's Only A Papermoon
TTITLE12=Straighten Up And Fly Right
TTITLE13=Too Young
TTITLE14=For All We Know
TTITLE15=Answer My My Love
TTITLE16=Darling Je Vous Aime Beaucoup
EXTD=YEAR: 2006
EXTT0=
EXTT1=
EXTT2=
EXTT3=
EXTT4=
EXTT5=
EXTT6=
EXTT7=
EXTT8=
EXTT9=
EXTT10=
EXTT11=
EXTT12=
EXTT13=
EXTT14=
EXTT15=
EXTT16=
PLAYORDER=
